#!OML:ASF I:\Random Stuff\random\construction\7_22_03\Session 2\subj1.ASF
:FULLY-SPECIFIED
:DEGREES
580
root -8.4542 17.6962 -5.59764 -318.748 113.213 -334.795
lowerback 12.4475 2.01053 -6.59137
upperback 6.28056 2.6109 -8.11327
thorax -0.200672 1.60958 -5.15925
lowerneck -20.4483 -3.57296 -4.89957
upperneck 45.2677 -3.71245 8.26608
head 23.3978 -0.454158 5.01811
rclavicle -2.38542e-014 -3.18055e-014
rhumerus 47.3166 77.5083 -0.329621
rradius 78.4368
rwrist 29.4395
rhand -13.14 2.09603
rfingers 7.12502
rthumb 12.9582 -27.4816
lclavicle -2.38542e-014 -3.18055e-014
lhumerus 35.3213 -69.8298 57.4051
lradius 39.6962
lwrist -15.4665
lhand -15.0026 55.8556
lfingers 7.12502
lthumb 11.1622 85.5387
rfemur -12.4502 -1.85093 24.0947
rtibia 2.94201e-014
rfoot -1.70555 -9.8039
rtoes -25.5344
lfemur -37.1927 -12.953 -0.0284484
ltibia 33.5713
lfoot -14.1496 2.15086
ltoes -35.208
581
root -8.4481 17.695 -5.59108 -318.684 113.557 -334.69
lowerback 12.535 1.9528 -6.41954
upperback 6.32215 2.54478 -8.03122
thorax -0.206345 1.57759 -5.16204
lowerneck -20.4488 -3.50815 -4.83632
upperneck 45.2616 -3.64916 8.31174
head 23.3803 -0.411717 5.04656
rclavicle 2.70347e-014 3.81667e-014
rhumerus 47.6117 77.5775 0.0483585
rradius 78.2346
rwrist 29.0345
rhand -13.4067 2.08638
rfingers 7.12502
rthumb 12.7012 -27.5074
lclavicle 2.70347e-014 3.81667e-014
lhumerus 36.0072 -69.9956 56.689
lradius 39.5544
lwrist -16.337
lhand -15.4407 55.7457
lfingers 7.12502
lthumb 10.7397 85.4512
rfemur -12.3769 -2.07075 24.3871
rtibia 1.59028e-015
rfoot -1.8123 -9.8128
rtoes -25.4503
lfemur -37.2633 -12.7469 0.135271
ltibia 33.6128
lfoot -14.223 1.7456
ltoes -35.361
582
root -8.44233 17.6928 -5.58689 -318.718 113.851 -334.772
lowerback 12.5604 1.88013 -6.24274
upperback 6.37339 2.47208 -8.00358
thorax -0.165251 1.54491 -5.22195
lowerneck -20.586 -3.50657 -4.85312
upperneck 45.2516 -3.66972 8.37378
head 23.439 -0.415974 5.0861
rclavicle 6.67916e-014 -5.725e-014
rhumerus 47.3611 77.5753 -0.149273
rradius 78.1559
rwrist 28.5584
rhand -13.4656 1.99481
rfingers 7.12502
rthumb 12.6443 -27.6025
lclavicle 6.67916e-014 -5.725e-014
lhumerus 36.8104 -70.1477 55.8672
lradius 39.451
lwrist -17.1377
lhand -15.9338 55.6921
lfingers 7.12502
lthumb 10.264 85.4217
rfemur -12.3825 -2.3053 24.5705
rtibia -2.54444e-014
rfoot -1.9008 -9.79805
rtoes -25.1192
lfemur -37.4316 -12.7862 0.301787
ltibia 33.6525
lfoot -14.2702 1.64689
ltoes -35.5845
583
root -8.43786 17.6909 -5.58496 -318.834 114.089 -334.943
lowerback 12.5679 1.80953 -6.11055
upperback 6.39961 2.39822 -8.0206
thorax -0.140187 1.51258 -5.30481
lowerneck -20.6433 -3.53645 -4.83865
upperneck 45.2613 -3.72877 8.38269
head 23.4838 -0.434572 5.07841
rclavicle 3.18055e-015 -3.18055e-015
rhumerus 46.702 77.613 -0.86585
rradius 78.2758
rwrist 27.9132
rhand -13.1173 1.83368
rfingers 7.12502
rthumb 12.9801 -27.7425
lclavicle 3.18055e-015 -3.18055e-015
lhumerus 37.3021 -70.306 55.3353
lradius 39.3547
lwrist -17.7794
lhand -16.1344 55.716
lfingers 7.12502
lthumb 10.0705 85.455
rfemur -12.4015 -2.52371 24.6812
rtibia 3.10104e-014
rfoot -1.93581 -9.7991
rtoes -24.9596
lfemur -37.6135 -13.0096 0.458425
ltibia 33.7054
lfoot -14.3443 1.70756
ltoes -35.3972
584
root -8.43532 17.6895 -5.58253 -318.894 114.374 -334.981
lowerback 12.6515 1.76673 -5.88396
upperback 6.4186 2.36042 -8.02462
thorax -0.160458 1.50003 -5.4357
lowerneck -20.6116 -3.59328 -4.82012
upperneck 45.2851 -3.82453 8.39061
head 23.5116 -0.464103 5.05972
rclavicle -3.02153e-014 -8.90555e-014
rhumerus 45.0687 77.7139 -2.63236
rradius 78.4516
rwrist 27.3783
rhand -12.5865 1.55748
rfingers 7.12502
rthumb 13.4918 -27.9855
lclavicle -3.02153e-014 -8.90555e-014
lhumerus 37.7971 -70.5648 54.8058
lradius 39.318
lwrist -18.0907
lhand -16.3914 55.8138
lfingers 7.12502
lthumb 9.82254 85.5647
rfemur -12.3558 -2.74372 24.8721
rtibia 2.38542e-014
rfoot -1.9566 -9.80585
rtoes -24.8351
lfemur -37.7232 -13.1971 0.667692
ltibia 33.7574
lfoot -14.577 1.65396
ltoes -34.8967
585
root -8.43299 17.6878 -5.5798 -318.974 114.652 -335.019
lowerback 12.7837 1.73091 -5.64602
upperback 6.41462 2.32554 -8.04494
thorax -0.230142 1.48985 -5.59442
lowerneck -20.5059 -3.65088 -4.74845
upperneck 45.2995 -3.94281 8.39179
head 23.4988 -0.49108 5.01615
rclavicle -3.33958e-014 -1.90833e-014
rhumerus 42.7486 77.8623 -5.16769
rradius 78.6184
rwrist 27.1782
rhand -12.084 1.21811
rfingers 7.12502
rthumb 13.976 -28.2921
lclavicle -3.33958e-014 -1.90833e-014
lhumerus 38.5165 -70.9235 53.9718
lradius 39.4
lwrist -18.1771
lhand -16.692 56.0217
lfingers 7.12502
lthumb 9.5325 85.7861
rfemur -12.29 -2.964 25.0452
rtibia -3.89618e-014
rfoot -2.00074 -9.7971
rtoes -24.3506
lfemur -37.7928 -13.3528 0.857262
ltibia 33.799
lfoot -14.3035 1.59428
ltoes -34.8144
